# This file uses centimeters as units for non-parametric coordinates.

mtllib led.mtl
g led1:default1
v -0.000182 0.002107 0.095751
v -0.000750 0.002107 0.095751
v -0.001034 0.002055 0.096240
v -0.000750 0.002004 0.096729
v -0.000182 0.002004 0.096729
v 0.000102 0.002055 0.096240
v -0.000216 0.002968 0.095900
v -0.000716 0.002968 0.095900
v -0.000966 0.002919 0.096331
v -0.000716 0.002877 0.096762
v -0.000216 0.002877 0.096762
v 0.000034 0.002919 0.096331
v -0.000466 0.003043 0.096343
vt 0.434274 0.698353
vt 0.423287 0.698353
vt 0.417786 0.688833
vt 0.423273 0.679324
vt 0.434283 0.679323
vt 0.439770 0.688838
vt 0.431722 0.693915
vt 0.425836 0.693915
vt 0.422892 0.688818
vt 0.425836 0.683720
vt 0.431722 0.683720
vt 0.434666 0.688818
vt 0.428779 0.688818
vn 1.000000 -0.000000 0.000000
vn 0.499200 0.090544 -0.861743
vn 0.375630 0.743447 -0.553342
vn 0.734171 0.675248 0.070948
vn 0.499200 0.090544 -0.861743
vn -0.499200 0.090544 -0.861743
vn -0.375630 0.743447 -0.553342
vn 0.375630 0.743447 -0.553342
vn -0.499200 0.090544 -0.861743
vn -1.000000 0.000000 -0.000000
vn -0.734171 0.675248 0.070948
vn -0.375630 0.743447 -0.553342
vn -0.375630 0.612202 0.695781
vn -0.734171 0.675248 0.070948
vn -1.000000 0.000000 -0.000000
vn -0.499200 -0.090544 0.861743
vn -0.499200 -0.090544 0.861743
vn 0.499200 -0.090544 0.861743
vn 0.375630 0.612202 0.695781
vn -0.375630 0.612202 0.695781
vn 0.499200 -0.090544 0.861743
vn 1.000000 -0.000000 0.000000
vn 0.734171 0.675248 0.070948
vn 0.375630 0.612202 0.695781
vn 0.020597 0.994134 0.106181
vn 0.000000 0.994525 0.104495
vn 0.016077 0.994397 0.104481
vn 0.000000 0.994525 0.104495
vn 0.020597 0.994134 0.106181
vn -0.020597 0.994134 0.106180
vn 0.000000 0.994525 0.104495
vn -0.020597 0.994134 0.106180
vn -0.016077 0.994397 0.104482
vn 0.000000 0.994525 0.104495
vn -0.016077 0.994397 0.104482
vn -0.020597 0.994492 0.102765
vn 0.000000 0.994525 0.104495
vn -0.020597 0.994492 0.102765
vn 0.020597 0.994492 0.102765
vn 0.000000 0.994525 0.104495
vn 0.020597 0.994492 0.102765
vn 0.016077 0.994397 0.104481
s off
g led1:LED led1:group1 led1:polySurface1
usemtl led1:lambert4SG
f 6/6/1 1/1/2 7/7/3 12/12/4
f 1/1/5 2/2/6 8/8/7 7/7/8
f 2/2/9 3/3/10 9/9/11 8/8/12
f 10/10/13 9/9/14 3/3/15 4/4/16
f 4/4/17 5/5/18 11/11/19 10/10/20
f 5/5/21 6/6/22 12/12/23 11/11/24
f 7/7/25 13/13/26 12/12/27
f 13/13/28 7/7/29 8/8/30
f 13/13/31 8/8/32 9/9/33
f 13/13/34 9/9/35 10/10/36
f 13/13/37 10/10/38 11/11/39
f 13/13/40 11/11/41 12/12/42
