# This file uses centimeters as units for non-parametric coordinates.

mtllib status.mtl
g status1:default1
v -0.009086 -0.002548 0.152126
v 0.009086 -0.002548 0.152126
v -0.011124 -0.001072 0.129915
v 0.011124 -0.001072 0.129915
vt 0.000000 0.000000
vt 1.000000 0.000000
vt 0.000000 1.000000
vt 1.000000 1.000000
vn -0.268454 0.962157 0.046766
vn -0.356582 0.933162 0.045358
vn 0.271646 0.961262 0.046726
vn 0.356584 0.933161 0.045359
s off
g status1:group1 status1:status status1:polySurface1
usemtl status1:initialShadingGroup
f 4/4/1 3/3/2 1/1/3 2/2/4
