# This file uses centimeters as units for non-parametric coordinates.

mtllib trackpad_scroll_cut.mtl
g default
v 0.004332 0.003877 0.048397
v 0.004332 0.003624 0.050624
v 0.014782 0.004777 0.046340
v 0.012518 0.005399 0.040911
v 0.004332 0.004208 0.045979
v 0.014782 0.004104 0.052217
v 0.016731 0.006226 0.038173
v 0.019751 0.005396 0.045416
v 0.008335 0.005875 0.036756
v 0.003898 0.004379 0.042999
v 0.004332 0.003414 0.053225
v 0.012518 0.003483 0.057647
v 0.019751 0.004498 0.053257
v 0.017716 0.003477 0.037195
v 0.020914 0.002599 0.044863
v 0.011150 0.006861 0.032628
v 0.002871 0.006133 0.034507
v 0.016731 0.003669 0.060501
v 0.020914 0.001648 0.053164
v 0.018327 -0.001972 0.044858
v 0.015523 -0.001202 0.038135
v 0.011809 0.004149 0.031326
v 0.003859 0.007204 0.029628
v -0.003045 0.006133 0.034507
v -0.003898 0.004375 0.042997
v 0.003898 0.003124 0.055018
v 0.008335 0.003007 0.061802
v 0.017716 0.000770 0.060832
v 0.011150 0.003034 0.066045
v 0.018327 -0.002805 0.052135
v 0.010343 -0.000613 0.032989
v -0.004033 0.007204 0.029628
v -0.008509 0.005875 0.036756
v 0.002871 0.002749 0.064051
v 0.011809 0.000098 0.066701
v 0.003859 0.002690 0.069046
v 0.015522 -0.003576 0.058859
v 0.003575 -0.000294 0.030203
v 0.004090 0.004513 0.028149
v -0.004264 0.004513 0.028149
v -0.011324 0.006861 0.032628
v -0.012692 0.005399 0.040911
v -0.004332 0.004199 0.045982
v -0.003898 0.003119 0.055019
v -0.003045 0.002749 0.064051
v 0.010344 -0.004164 0.064005
v 0.004090 -0.000266 0.069878
v -0.004033 0.002690 0.069046
v -0.003749 -0.000294 0.030203
v -0.016905 0.006226 0.038173
v -0.014956 0.004777 0.046340
v -0.004332 0.003881 0.048365
v -0.008509 0.003007 0.061802
v 0.003576 -0.004484 0.066790
v -0.004264 -0.000266 0.069878
v -0.011324 0.003034 0.066045
v -0.010516 -0.000613 0.032989
v -0.011983 0.004149 0.031326
v -0.017890 0.003477 0.037195
v -0.019925 0.005396 0.045416
v -0.004332 0.003489 0.052025
v -0.003749 -0.004484 0.066790
v -0.011983 0.000098 0.066701
v -0.012692 0.003483 0.057647
v -0.016905 0.003669 0.060501
v -0.015696 -0.001202 0.038135
v -0.021088 0.002599 0.044863
v -0.019925 0.004498 0.053257
v -0.014956 0.004104 0.052217
v -0.004332 0.003689 0.050042
v -0.010517 -0.004164 0.064005
v -0.017890 0.000770 0.060832
v -0.018500 -0.001972 0.044858
v -0.021088 0.001648 0.053164
v -0.015695 -0.003576 0.058859
v -0.018500 -0.002805 0.052135
v -0.004332 -0.014696 0.048397
v 0.004332 -0.014696 0.048397
v -0.004332 -0.003232 0.048397
v 0.004332 -0.003232 0.048397
v -0.004332 -0.003232 0.059860
v 0.004332 -0.003232 0.059860
v -0.004332 0.000310 0.059299
v 0.004332 0.000310 0.059299
v -0.004332 -0.003232 0.036933
v 0.004332 -0.003232 0.036933
v -0.004332 0.000310 0.037494
v 0.004332 0.000310 0.037494
v -0.004332 0.003505 0.039123
v 0.004332 0.003505 0.039123
vt 0.309255 0.642335
vt 0.294912 0.638624
vt 0.314142 0.610530
vt 0.333515 0.618719
vt 0.319054 0.644024
vt 0.292806 0.610146
vt 0.343690 0.603851
vt 0.318097 0.592857
vt 0.348239 0.633465
vt 0.338960 0.646861
vt 0.286717 0.642033
vt 0.272762 0.617950
vt 0.289681 0.592045
vt 0.350126 0.594416
vt 0.320674 0.581492
vt 0.363102 0.623288
vt 0.356401 0.652847
vt 0.262656 0.602280
vt 0.287771 0.580285
vt 1.000000 1.000000
vt 0.000000 1.000000
vt 0.000000 0.000000
vt 1.000000 0.000000
vt 0.372543 0.616855
vt 0.374068 0.648929
vt 0.356734 0.674202
vt 0.339320 0.680239
vt 0.267109 0.646922
vt 0.257322 0.633003
vt 0.256211 0.592122
vt 0.241883 0.622461
vt 1.000000 1.000000
vt 0.000000 1.000000
vt 0.000000 0.000000
vt 1.000000 0.000000
vt 1.000000 1.000000
vt 0.000000 1.000000
vt 0.000000 0.000000
vt 1.000000 0.000000
vt 0.374817 0.677379
vt 0.348883 0.694209
vt 0.248981 0.653000
vt 0.231908 0.615673
vt 0.230748 0.649345
vt 1.000000 1.000000
vt 0.000000 1.000000
vt 0.000000 0.000000
vt 1.000000 0.000000
vt 1.000000 1.000000
vt 0.000000 1.000000
vt 0.000000 0.000000
vt 1.000000 0.000000
vt 0.385447 0.646371
vt 0.386572 0.679323
vt 0.364503 0.704363
vt 0.333802 0.709584
vt 0.319534 0.684237
vt 0.265515 0.680712
vt 0.248947 0.674670
vt 1.000000 1.000000
vt 0.000000 1.000000
vt 0.000000 0.000000
vt 1.000000 0.000000
vt 0.218900 0.647016
vt 0.230766 0.678369
vt 1.000000 1.000000
vt 0.000000 1.000000
vt 0.000000 0.000000
vt 1.000000 0.000000
vt 0.344292 0.725050
vt 0.313815 0.717878
vt 0.307745 0.687822
vt 0.257112 0.694603
vt 1.000000 1.000000
vt 0.000000 1.000000
vt 0.000000 0.000000
vt 1.000000 0.000000
vt 0.218991 0.680718
vt 0.241685 0.705013
vt 1.000000 1.000000
vt 0.000000 1.000000
vt 0.000000 0.000000
vt 1.000000 0.000000
vt 0.374633 0.710840
vt 0.351046 0.735034
vt 0.317430 0.736117
vt 1.000000 1.000000
vt 0.000000 1.000000
vt 0.000000 0.000000
vt 1.000000 0.000000
vt 0.231802 0.711624
vt 0.272252 0.709739
vt 0.261845 0.725184
vt 1.000000 1.000000
vt 0.000000 1.000000
vt 0.000000 0.000000
vt 1.000000 0.000000
vt 0.319744 0.747956
vt 0.288462 0.736085
vt 0.292164 0.717892
vt 0.296970 0.684907
vt 0.288838 0.684015
vt 1.000000 1.000000
vt 0.000000 1.000000
vt 0.000000 0.000000
vt 1.000000 0.000000
vt 0.255239 0.735062
vt 1.000000 1.000000
vt 0.000000 1.000000
vt 0.000000 0.000000
vt 1.000000 0.000000
vt 0.286112 0.747852
vt 1.000000 1.000000
vt 0.000000 1.000000
vt 0.000000 0.000000
vt 1.000000 0.000000
vt 1.000000 1.000000
vt 0.000000 1.000000
vt 0.000000 0.000000
vt 1.000000 0.000000
vt 1.000000 1.000000
vt 0.000000 1.000000
vt 0.000000 0.000000
vt 1.000000 0.000000
vt 0.397375 0.418602
vt 0.399721 0.547738
vt 0.544750 0.152384
vt 0.500000 0.150000
vt 0.581797 0.417199
vt 0.576971 0.539442
vt 0.544750 0.848858
vt 0.500000 0.837500
vt 0.425000 0.312500
vt 0.425000 0.688440
vt 0.500000 -0.000000
vt 0.500000 1.000000
vt 0.437500 0.312500
vt 0.437500 0.688440
vt 0.451716 0.007647
vt 0.451716 0.992353
vt 0.440522 0.428288
vt 0.440158 0.544563
vt 0.441486 0.053632
vt 0.550000 0.312500
vt 0.550000 0.688440
vt 0.433304 0.934945
vt 0.422230 0.110944
vt 0.500000 0.312500
vt 0.537500 0.312500
vt 0.537500 0.688440
vt 0.500000 0.687500
vt 0.428959 0.893232
vt 0.433371 0.130227
vt 0.451716 0.304853
vt 0.525000 0.312500
vt 0.525000 0.688440
vt 0.451716 0.695147
vt 0.438558 0.854984
vt 0.425772 0.167852
vt 0.408159 0.282659
vt 0.522426 0.564914
vt 0.522620 0.438733
vt 0.408159 0.717341
vt 0.424629 0.841082
vt 0.419055 0.182717
vt 0.418516 0.232849
vt 0.417251 0.764694
vt 0.409858 0.819125
vn -0.039499 0.991807 0.121490
vn -0.091048 0.987156 0.131276
vn -0.077196 0.983349 0.164518
vn -0.036081 0.989828 0.137615
vn -0.039499 0.991807 0.121490
vn -0.039498 0.993594 0.105878
vn -0.091054 0.991276 0.095295
vn -0.091048 0.987156 0.131276
vn -0.071691 0.984358 0.160933
vn -0.077196 0.983349 0.164518
vn -0.091048 0.987156 0.131276
vn -0.084560 0.987893 0.130064
vn -0.051575 0.980434 0.189973
vn -0.029724 0.984829 0.170961
vn -0.037828 0.994113 0.101527
vn -0.032310 0.996500 0.077100
vn -0.077185 0.995085 0.062032
vn -0.091054 0.991276 0.095295
vn -0.084560 0.987893 0.130064
vn -0.091048 0.987156 0.131276
vn -0.091054 0.991276 0.095295
vn -0.084563 0.991721 0.096641
vn 0.783249 0.392964 -0.481767
vn -0.071691 0.984358 0.160933
vn -0.084560 0.987893 0.130064
vn 0.923905 0.354327 -0.144403
vn -0.047898 0.981651 0.184572
vn -0.051575 0.980434 0.189973
vn -0.077196 0.983349 0.164518
vn -0.071691 0.984358 0.160933
vn -0.018107 0.978858 0.203739
vn -0.084563 0.991721 0.096641
vn -0.091054 0.991276 0.095295
vn -0.077185 0.995085 0.062032
vn -0.071686 0.995258 0.065752
vn -0.084560 0.987893 0.130064
vn -0.084563 0.991721 0.096641
vn 0.923904 0.312510 0.220771
vn 0.848050 -0.479869 -0.224806
vn 0.718927 -0.444413 -0.534454
vn 0.523345 0.422540 -0.739980
vn -0.047898 0.981651 0.184572
vn -0.071691 0.984358 0.160933
vn -0.016817 0.980186 0.197362
vn -0.018107 0.978858 0.203739
vn -0.051575 0.980434 0.189973
vn -0.047898 0.981651 0.184572
vn 0.018107 0.978858 0.203739
vn 0.030275 0.986518 0.160830
vn -0.012150 0.998540 0.052640
vn -0.051577 0.997998 0.036598
vn -0.084563 0.991721 0.096641
vn -0.071686 0.995258 0.065752
vn 0.783251 0.273881 0.558128
vn -0.071686 0.995258 0.065752
vn -0.077185 0.995085 0.062032
vn -0.051577 0.997998 0.036598
vn -0.047905 0.997963 0.042124
vn 0.848041 -0.518286 0.110484
vn 0.480412 -0.417284 -0.771414
vn -0.016817 0.980186 0.197362
vn -0.047898 0.981651 0.184572
vn 0.183780 0.438547 -0.879717
vn 0.016817 0.980187 0.197361
vn 0.018107 0.978858 0.203739
vn -0.018107 0.978858 0.203739
vn -0.016817 0.980186 0.197362
vn 0.051575 0.980434 0.189973
vn -0.018096 0.999576 0.022821
vn -0.071686 0.995258 0.065752
vn -0.047905 0.997963 0.042124
vn 0.523349 0.244319 0.816342
vn -0.047905 0.997963 0.042124
vn -0.051577 0.997998 0.036598
vn -0.018096 0.999576 0.022821
vn -0.016808 0.999428 0.029332
vn 0.718929 -0.553740 0.420135
vn 0.168732 -0.402567 -0.899705
vn -0.183775 0.438534 -0.879724
vn 0.016817 0.980187 0.197361
vn -0.016817 0.980186 0.197362
vn 0.047898 0.981651 0.184572
vn 0.051575 0.980434 0.189973
vn 0.018107 0.978858 0.203739
vn 0.016817 0.980187 0.197361
vn 0.077196 0.983349 0.164517
vn 0.034507 0.989580 0.139792
vn 0.034863 0.995572 0.087295
vn 0.018096 0.999576 0.022821
vn 0.480415 -0.580866 0.657111
vn 0.183775 0.228311 0.956086
vn -0.016808 0.999428 0.029332
vn -0.018096 0.999576 0.022821
vn 0.018096 0.999576 0.022821
vn 0.016808 0.999428 0.029332
vn -0.168732 -0.402567 -0.899705
vn 0.047898 0.981651 0.184572
vn 0.016817 0.980187 0.197361
vn -0.523342 0.422540 -0.739982
vn 0.071691 0.984358 0.160932
vn 0.077196 0.983349 0.164517
vn 0.051575 0.980434 0.189973
vn 0.047898 0.981651 0.184572
vn 0.091048 0.987156 0.131276
vn 0.039499 0.991807 0.121489
vn 0.051577 0.997998 0.036598
vn 0.168713 -0.595576 0.785382
vn -0.016808 0.999428 0.029332
vn 0.016808 0.999428 0.029332
vn -0.183775 0.228311 0.956086
vn 0.047905 0.997963 0.042124
vn 0.016808 0.999428 0.029332
vn 0.018096 0.999576 0.022821
vn 0.051577 0.997998 0.036598
vn -0.480412 -0.417284 -0.771414
vn -0.783248 0.392969 -0.481766
vn 0.071691 0.984358 0.160932
vn 0.047898 0.981651 0.184572
vn 0.084560 0.987893 0.130063
vn 0.091048 0.987156 0.131276
vn 0.077196 0.983349 0.164517
vn 0.071691 0.984358 0.160932
vn -0.168714 -0.595576 0.785382
vn -0.523349 0.244319 0.816342
vn 0.047905 0.997963 0.042124
vn 0.051577 0.997998 0.036598
vn 0.077185 0.995085 0.062032
vn 0.071686 0.995258 0.065752
vn -0.718927 -0.444413 -0.534454
vn -0.923905 0.354327 -0.144404
vn 0.084560 0.987893 0.130063
vn 0.071691 0.984358 0.160932
vn 0.084563 0.991721 0.096641
vn 0.091054 0.991276 0.095295
vn 0.091048 0.987156 0.131276
vn 0.084560 0.987893 0.130063
vn 0.039498 0.993594 0.105878
vn 0.091054 0.991276 0.095295
vn 0.035210 0.995292 0.090294
vn 0.077185 0.995085 0.062032
vn -0.480416 -0.580866 0.657111
vn 0.047905 0.997963 0.042124
vn 0.071686 0.995258 0.065752
vn -0.783251 0.273882 0.558128
vn 0.071686 0.995258 0.065752
vn 0.077185 0.995085 0.062032
vn 0.091054 0.991276 0.095295
vn 0.084563 0.991721 0.096641
vn -0.848050 -0.479869 -0.224806
vn -0.923903 0.312511 0.220771
vn 0.084563 0.991721 0.096641
vn 0.084560 0.987893 0.130063
vn 0.059228 0.993992 0.092046
vn 0.091054 0.991276 0.095295
vn -0.718929 -0.553740 0.420135
vn 0.071686 0.995258 0.065752
vn 0.084563 0.991721 0.096641
vn -0.848040 -0.518287 0.110484
vn 0.000000 1.000000 0.000000
vn 0.000000 0.587785 -0.809017
vn 0.000000 0.587785 -0.809017
vn 0.000000 1.000000 0.000000
vn 1.000000 0.000000 0.000000
vn 1.000000 0.000000 0.000000
vn 0.999986 -0.005210 -0.000382
vn -1.000000 0.000000 0.000000
vn -1.000000 0.000000 0.000000
vn -0.999985 -0.005435 0.000381
vn 0.000107 -0.587621 -0.809137
vn 0.000107 -0.587628 -0.809132
vn 0.998972 -0.043102 0.014005
vn -0.998973 -0.043097 0.014003
vn 0.000174 -0.835795 -0.549041
vn 0.000174 -0.835795 -0.549041
vn 0.997554 -0.069881 0.001617
vn 0.000000 0.587785 0.809017
vn 0.000000 0.587785 0.809017
vn -0.997629 -0.068816 0.000637
vn 0.993942 0.052211 -0.096717
vn 1.000000 0.000000 0.000000
vn 0.000000 -0.309017 0.951057
vn 0.000000 -0.309017 0.951057
vn -1.000000 0.000000 0.000000
vn -0.987732 0.091787 -0.126334
vn 1.000000 0.000000 0.000000
vn 1.000000 0.000000 0.000000
vn 0.000100 -0.786680 0.617361
vn 0.000100 -0.786689 0.617350
vn -1.000000 0.000000 0.000000
vn -1.000000 0.000000 0.000000
vn 1.000000 -0.000000 0.000000
vn 0.998796 -0.039682 -0.028830
vn 0.000184 -0.975621 0.219463
vn 0.000184 -0.975621 0.219463
vn -0.998796 -0.039685 -0.028833
vn -1.000000 0.000000 0.000000
vn 0.994276 0.033017 0.101616
vn 0.996247 -0.080119 -0.032768
vn -0.996267 -0.079940 -0.032583
vn -0.994306 0.032929 0.101345
s 1
g trackpad_scroll_cut1:polySurface1
usemtl trackpad1:lambert4SG
f 1/1/1 3/3/2 4/4/3 5/5/4
s off
f 1/1/5 2/2/6 6/6/7 3/3/8
f 7/7/9 4/4/10 3/3/11 8/8/12
s 1
f 9/9/13 10/10/14 5/5/4 4/4/3
s 2
f 2/2/15 11/11/16 12/12/17 6/6/18
s off
f 8/8/19 3/3/20 6/6/21 13/13/22
s 3
f 14/14/23 7/7/24 8/8/25 15/15/26
s off
f 16/16/27 9/9/28 4/4/29 7/7/30
s 1
f 17/17/31 10/10/14 9/9/13
s off
f 13/13/32 6/6/33 12/12/34 18/18/35
s 3
f 15/15/26 8/8/36 13/13/37 19/19/38
f 20/20/39 21/21/40 14/22/23 15/23/26
f 22/24/41 16/16/42 7/7/43 14/14/23
s off
f 23/25/44 17/17/45 9/9/46 16/16/47
s 1
f 10/10/14 17/17/31 24/26/48 25/27/49
s 2
f 26/28/50 27/29/51 12/12/17 11/11/16
s 3
f 13/13/52 18/18/53 28/30/54 19/19/38
s off
f 18/18/55 12/12/56 27/29/57 29/31/58
s 3
f 30/32/59 20/33/39 15/34/26 19/35/38
f 21/36/40 31/37/60 22/38/41 14/39/23
f 23/25/61 16/16/62 22/24/41 39/53/63
s off
f 32/40/64 24/26/65 17/17/66 23/25/67
s 1
f 24/26/48 33/41/68 25/27/49
s 2
f 26/28/50 34/42/69 27/29/51
s 3
f 28/30/54 18/18/70 29/31/71 35/43/72
f 29/31/73 27/29/74 34/42/75 36/44/76
f 37/45/77 30/46/59 19/47/38 28/48/54
f 31/49/60 38/50/78 39/51/63 22/52/41
f 40/54/79 32/40/80 23/25/81 39/53/63
s off
f 41/55/82 33/41/83 24/26/84 32/40/85
s 1
f 25/27/49 33/41/68 42/56/86 43/57/87
s 2
f 44/58/88 45/59/89 34/42/69 26/28/50
s 3
f 46/60/90 37/61/77 28/62/54 35/63/72
f 35/43/72 29/31/73 36/44/76 47/64/91
s off
f 36/44/92 34/42/93 45/59/94 48/65/95
s 3
f 38/66/78 49/67/96 40/68/79 39/69/63
f 41/55/97 32/40/98 40/54/79 58/84/99
s off
f 50/70/100 42/56/101 33/41/102 41/55/103
s 1
f 43/57/87 42/56/86 51/71/104 52/72/105
s 2
f 53/73/106 45/59/89 44/58/88
s 3
f 54/74/107 46/75/90 35/76/72 47/77/91
f 47/64/91 36/44/108 48/65/109 55/78/110
f 56/79/111 48/65/112 45/59/113 53/73/114
f 49/80/96 57/81/115 58/82/99 40/83/79
f 59/85/116 50/70/117 41/55/118 58/84/99
s off
f 60/86/119 51/71/120 42/56/121 50/70/122
s 3
f 62/87/123 54/88/107 47/89/91 55/90/110
f 55/78/110 48/65/112 56/79/111 63/91/124
s off
f 56/79/125 53/73/126 64/92/127 65/93/128
s 3
f 57/94/115 66/95/129 59/96/116 58/97/99
f 67/98/130 60/86/131 50/70/132 59/85/116
s off
f 68/99/133 69/100/134 51/71/135 60/86/136
s 1
f 70/101/137 52/72/105 51/71/104 69/100/138
s 2
f 61/102/139 64/92/140 53/73/106 44/58/88
s 3
f 71/103/141 62/104/123 55/105/110 63/106/124
f 63/91/124 56/79/142 65/93/143 72/107/144
s off
f 65/93/145 64/92/146 69/100/147 68/99/148
s 3
f 66/108/129 73/109/149 67/110/130 59/111/116
f 74/112/150 68/99/151 60/86/152 67/98/130
s 2
f 70/101/153 69/100/154 64/92/140 61/102/139
s 3
f 75/113/155 71/114/141 63/115/124 72/116/144
f 74/112/150 72/107/144 65/93/156 68/99/157
f 73/117/149 76/118/158 74/119/150 67/120/130
f 76/121/158 75/122/155 72/123/144 74/124/150
s 9
usemtl initialShadingGroup
f 77/125/159 81/133/160 82/134/161 78/126/162
s 10
f 81/135/163 77/127/164 79/128/165
s 11
f 78/131/166 82/136/167 80/132/168
s 9
f 81/133/160 83/137/169 84/138/170 82/134/161
s 10
f 83/139/171 81/135/163 79/128/165
s 11
f 82/136/167 84/140/172 80/132/168
s 9
f 83/137/169 44/141/173 26/142/174 84/138/170
s 10
f 44/143/175 83/139/171 79/128/165
s 9
f 85/144/176 77/129/159 78/130/162 86/145/177
s 11
f 26/146/178 80/132/168 84/140/172
s 10
f 61/147/179 44/143/175 79/128/165
f 77/127/164 85/148/180 79/128/165
s 9
f 87/149/181 85/144/176 86/145/177 88/150/182
s 11
f 86/151/183 78/131/166 80/132/168
f 26/146/178 11/152/184 80/132/168
s 10
f 70/153/185 61/147/179 79/128/165
f 85/148/180 87/154/186 79/128/165
s 9
f 89/155/187 87/149/181 88/150/182 90/156/188
s 11
f 88/157/189 86/151/183 80/132/168
f 11/152/184 2/158/190 80/132/168
s 10
f 52/159/191 70/153/185 79/128/165
f 87/154/186 89/160/192 79/128/165
s 9
f 10/161/193 25/162/194 89/155/187 90/156/188
s 11
f 90/163/195 88/157/189 80/132/168
f 2/158/190 1/164/196 80/132/168
s 10
f 43/165/197 52/159/191 79/128/165
f 25/166/198 79/128/165 89/160/192
s 11
f 10/167/199 90/163/195 80/132/168
f 1/164/196 5/168/200 80/132/168
s 10
f 25/166/198 43/165/197 79/128/165
s 11
f 5/168/200 10/167/199 80/132/168
