# This file uses centimeters as units for non-parametric coordinates.

mtllib trigger.mtl
g trigger2:default1
v -0.006263 -0.017586 0.056843
v 0.006272 -0.017586 0.056843
v -0.006263 -0.016607 0.038955
v 0.006272 -0.016607 0.038955
v -0.008708 -0.017368 0.052861
v 0.008717 -0.017368 0.052861
v -0.009502 -0.016769 0.041930
v 0.009511 -0.016769 0.041930
v -0.009432 -0.019903 0.042917
v -0.006067 -0.020224 0.039946
v 0.006077 -0.020224 0.039946
v 0.009441 -0.019898 0.042918
v 0.008731 -0.020573 0.051783
v 0.006275 -0.020957 0.055455
v -0.006266 -0.020957 0.055455
v -0.008722 -0.020576 0.051783
v -0.005262 -0.034025 0.052655
v -0.004056 -0.036368 0.052638
v 0.004065 -0.036368 0.052638
v 0.005271 -0.034023 0.052655
v -0.006064 -0.030782 0.052373
v 0.006073 -0.030772 0.052373
v -0.005681 -0.031219 0.047176
v 0.005690 -0.031209 0.047177
v -0.003916 -0.036484 0.049529
v -0.004981 -0.034102 0.048656
v 0.004990 -0.034100 0.048656
v 0.003926 -0.036484 0.049529
v -0.003404 -0.038256 0.050754
v 0.003414 -0.038256 0.050754
v -0.003427 -0.037658 0.052241
v 0.003436 -0.037658 0.052241
v 0.007817 -0.034163 0.050084
v 0.005739 -0.036733 0.050564
v 0.007311 -0.034008 0.052042
v 0.005472 -0.036344 0.052191
v 0.009026 -0.031078 0.049130
v 0.008445 -0.030821 0.051514
v -0.005730 -0.036733 0.050564
v -0.007808 -0.034183 0.050083
v -0.005463 -0.036344 0.052191
v -0.007302 -0.034019 0.052041
v -0.009017 -0.031181 0.049124
v -0.008436 -0.030872 0.051511
v -0.009353 -0.025822 0.046194
v -0.008736 -0.025390 0.050445
v -0.006268 -0.025351 0.052452
v 0.006277 -0.025330 0.052453
v 0.008745 -0.025288 0.050450
v 0.009362 -0.025617 0.046206
v 0.005868 -0.026265 0.043336
v -0.005859 -0.026286 0.043335
vt 0.073707 0.851212
vt 0.078590 0.853113
vt 0.073641 0.879470
vt 0.078477 0.877630
vt 0.065649 0.847298
vt 0.073694 0.846088
vt 0.073635 0.884493
vt 0.065686 0.883383
vt 0.054821 0.844383
vt 0.065599 0.840176
vt 0.065740 0.890477
vt 0.054833 0.886422
vt 0.055351 0.836043
vt 0.055346 0.894881
vt 0.035936 0.842666
vt 0.035666 0.888140
vt 0.037900 0.831779
vt 0.037245 0.899286
vt 0.018477 0.844733
vt 0.018162 0.885761
vt 0.006956 0.844856
vt 0.006633 0.885420
vt 0.056376 0.480026
vt 0.037773 0.480393
vt 0.037698 0.445928
vt 0.056341 0.446303
vt 0.065757 0.477573
vt 0.065711 0.448749
vt 0.072689 0.452151
vt 0.072730 0.474126
vt 0.017409 0.481395
vt 0.017340 0.444988
vt 0.005966 0.482904
vt 0.005858 0.443523
vt 0.041513 0.494007
vt 0.011007 0.830241
vt 0.078780 0.472764
vt 0.078807 0.453460
vt 0.075134 0.479589
vt 0.075019 0.446680
vt 0.021756 0.830796
vt 0.011210 0.497602
vt 0.068413 0.439929
vt 0.059672 0.435064
vt 0.041036 0.432039
vt 0.021097 0.430893
vt 0.011072 0.428731
vt 0.021159 0.899860
vt 0.010334 0.900137
vt 0.068543 0.486434
vt 0.059905 0.491213
vt 0.021188 0.495432
vn 0.122353 -0.162424 0.979106
vn -0.122341 -0.162446 0.979104
vn -0.264319 -0.593369 0.760295
vn 0.264319 -0.593371 0.760293
vn -0.192178 0.069202 0.978917
vn -0.124961 0.000346 0.992162
vn 0.124870 0.000272 0.992173
vn 0.191280 0.068858 0.979117
vn -0.605262 0.043031 0.794863
vn -0.553561 -0.215873 0.804344
vn -0.486257 -0.486104 0.726125
vn 0.486707 -0.485846 0.725996
vn 0.554905 -0.215363 0.803554
vn 0.603277 0.042176 0.796416
vn 0.419464 -0.416845 0.806406
vn -0.416400 -0.416164 0.808343
vn 0.823125 0.007254 0.567814
vn -0.214829 -0.441477 -0.871175
vn -0.220364 -0.534386 -0.816009
vn 0.224896 -0.532461 -0.816031
vn 0.215874 -0.440893 -0.871213
vn -0.765325 -0.541887 -0.347327
vn -0.875409 -0.335102 -0.348377
vn 0.771039 -0.535442 -0.344676
vn 0.882609 -0.322367 -0.342170
vn -0.238509 -0.652316 -0.719442
vn 0.246963 -0.652439 -0.716473
vn 0.188936 -0.417380 -0.888874
vn -0.188864 -0.417474 -0.888845
vn 0.360095 -0.913278 -0.190405
vn -0.360096 -0.913277 -0.190408
vn -0.640283 -0.726490 -0.249498
vn 0.641272 -0.725680 -0.249316
vn 0.954561 -0.180945 -0.236797
vn -0.825056 0.006818 0.565010
vn -0.953113 -0.180016 -0.243249
vn -0.987208 -0.071096 -0.142706
vn -0.233542 -0.293137 -0.927108
vn -0.990625 -0.062266 -0.121593
vn -0.155564 -0.255487 -0.954215
vn 0.233683 -0.293347 -0.927006
vn 0.155565 -0.255488 -0.954215
vn 0.987182 -0.071605 -0.142631
vn 0.990625 -0.062266 -0.121593
vn 0.948812 -0.098314 0.300151
vn 0.953932 -0.094222 0.284843
vn 0.530239 -0.302684 0.791978
vn 0.572035 -0.324187 0.753445
vn -0.572016 -0.324024 0.753529
vn -0.530235 -0.302684 0.791981
vn -0.953932 -0.094227 0.284841
vn -0.948832 -0.098055 0.300173
s 1
g trigger2:group1 trigger2:trigger trigger2:polySurface1
usemtl trigger2:lambert4SG
f 19/3/1 18/1/2 31/2/3 32/4/4
f 21/9/5 17/5/6 20/8/7 22/12/8
f 17/5/6 21/9/5 44/13/9 42/10/10
f 18/1/2 17/5/6 42/10/10 41/6/11
f 20/8/7 19/3/1 36/7/12 35/11/13
f 19/3/1 20/8/7 17/5/6 18/1/2
f 22/12/8 20/8/7 35/11/13 38/14/14
f 22/12/8 48/16/15 47/15/16 21/9/5
f 38/14/14 49/18/17 48/16/15 22/12/8
f 26/27/18 23/23/19 24/26/20 27/28/21
f 23/23/19 26/27/18 40/50/22 43/51/23
f 33/43/24 27/28/21 24/26/20 37/44/25
f 23/23/19 52/24/26 51/25/27 24/26/20
f 26/27/18 27/28/21 28/29/28 25/30/29
f 25/30/29 28/29/28 30/38/30 29/37/31
f 39/39/32 29/37/31 31/2/3 41/6/11
f 25/30/29 29/37/31 39/39/32
f 30/38/30 28/29/28 34/40/33
f 32/4/4 30/38/30 34/40/33 36/7/12
f 29/37/31 30/38/30 32/4/4 31/2/3
f 31/2/3 18/1/2 41/6/11
f 19/3/1 32/4/4 36/7/12
f 33/43/24 34/40/33 28/29/28 27/28/21
f 35/11/13 33/43/24 37/44/25 38/14/14
f 35/11/13 36/7/12 34/40/33 33/43/24
f 24/26/20 51/25/27 50/45/34 37/44/25
f 37/44/25 50/45/34 49/18/17 38/14/14
f 25/30/29 39/39/32 40/50/22 26/27/18
f 43/51/23 40/50/22 42/10/10 44/13/9
f 39/39/32 41/6/11 42/10/10 40/50/22
f 44/13/9 46/17/35 45/35/36 43/51/23
f 43/51/23 45/35/36 52/24/26 23/23/19
f 21/9/5 47/15/16 46/17/35 44/13/9
f 45/35/36 9/52/37 10/31/38 52/24/26
f 7/42/39 3/33/40 10/31/38 9/52/37
f 10/31/38 11/32/41 51/25/27 52/24/26
f 3/33/40 4/34/42 11/32/41 10/31/38
f 11/32/41 12/46/43 50/45/34 51/25/27
f 4/34/42 8/47/44 12/46/43 11/32/41
f 12/46/43 13/48/45 49/18/17 50/45/34
f 8/47/44 6/49/46 13/48/45 12/46/43
f 13/48/45 6/49/46 2/22/47 14/20/48
f 13/48/45 14/20/48 48/16/15 49/18/17
f 14/20/48 15/19/49 47/15/16 48/16/15
f 2/22/47 1/21/50 15/19/49 14/20/48
f 15/19/49 1/21/50 5/36/51 16/41/52
f 15/19/49 16/41/52 46/17/35 47/15/16
f 16/41/52 9/52/37 45/35/36 46/17/35
f 5/36/51 7/42/39 9/52/37 16/41/52
